<?xml version="1.0" encoding="UTF-8" standalone="no"?><!DOCTYPE svg PUBLIC "-//W3C//DTD SVG 1.1//EN" "http://www.w3.org/Graphics/SVG/1.1/DTD/svg11.dtd"><svg width="100%" height="100%" viewBox="0 0 388 388" version="1.1" xmlns="http://www.w3.org/2000/svg" xmlns:xlink="http://www.w3.org/1999/xlink" xml:space="preserve" style="fill-rule:evenodd;clip-rule:evenodd;stroke-linejoin:round;stroke-miterlimit:1.41421;"><g id="Layer-1"><rect x="0" y="0" width="388" height="388" style="fill:#3c324c;fill-rule:nonzero;"/><path d="M104.307,327.166l-10.585,0c-18.405,0 -32.089,-4.315 -41.053,-12.945c-8.964,-8.63 -13.446,-21.718 -13.446,-39.265l0,-49.206c0,-4.672 -0.524,-8.844 -1.573,-12.516c-1.049,-3.671 -2.885,-6.77 -5.507,-9.297c-2.622,-2.527 -6.103,-4.458 -10.442,-5.794c-4.339,-1.335 -9.798,-2.002 -16.378,-2.002l-6.151,0l0,-19.883l6.151,0c6.961,0 12.635,-0.572 17.022,-1.716c4.386,-1.145 7.819,-2.885 10.299,-5.221c2.479,-2.337 4.195,-5.317 5.149,-8.94c0.954,-3.624 1.43,-7.915 1.43,-12.874l0,-33.901c0,-8.01 0.954,-15.233 2.861,-21.67c1.908,-6.437 5.031,-11.92 9.369,-16.45c4.339,-4.53 9.966,-8.01 16.879,-10.442c6.914,-2.432 15.377,-3.647 25.39,-3.647l10.585,0l0,20.025l-8.439,0c-22.124,0 -33.186,10.728 -33.186,32.184l0,33.329c0,23.268 -10.06,36.38 -30.181,39.336c20.311,2.003 30.467,15.067 30.467,39.193l0,48.92c0,21.838 10.967,32.756 32.9,32.756l8.439,0l0,20.026Z" style="fill:#fff;fill-rule:nonzero;"/><path d="M284.692,327.166l10.585,0c18.405,0 32.089,-4.315 41.053,-12.945c8.964,-8.63 13.446,-21.718 13.446,-39.265l0,-49.206c0,-4.672 0.524,-8.844 1.573,-12.516c1.049,-3.671 2.885,-6.77 5.508,-9.297c2.622,-2.527 6.103,-4.458 10.441,-5.794c4.339,-1.335 9.799,-2.002 16.379,-2.002l6.15,0l0,-19.883l-6.15,0c-6.962,0 -12.636,-0.572 -17.022,-1.716c-4.387,-1.145 -7.82,-2.885 -10.299,-5.221c-2.48,-2.337 -4.196,-5.317 -5.15,-8.94c-0.953,-3.624 -1.43,-7.915 -1.43,-12.874l0,-33.901c0,-8.01 -0.954,-15.233 -2.861,-21.67c-1.907,-6.437 -5.03,-11.92 -9.369,-16.45c-4.339,-4.53 -9.965,-8.01 -16.879,-10.442c-6.913,-2.432 -15.377,-3.647 -25.39,-3.647l-10.585,0l0,20.025l8.44,0c22.124,0 33.185,10.728 33.185,32.184l0,33.329c0,23.268 10.061,36.38 30.182,39.336c-20.312,2.003 -30.468,15.067 -30.468,39.193l0,48.92c0,21.838 -10.966,32.756 -32.899,32.756l-8.44,0l0,20.026Z" style="fill:#fff;fill-rule:nonzero;"/><g><path d="M133.146,201.514l-0.371,-9.283c-1.321,1.609 -2.682,3.074 -4.085,4.394c-1.402,1.32 -2.908,2.444 -4.517,3.373c-1.609,0.928 -3.332,1.65 -5.168,2.165c-1.836,0.516 -3.867,0.774 -6.095,0.774c-3.713,0 -7.014,-0.743 -9.902,-2.228c-2.888,-1.485 -5.311,-3.599 -7.271,-6.343c-1.96,-2.743 -3.455,-6.075 -4.487,-9.994c-1.031,-3.92 -1.547,-8.293 -1.547,-13.12c0,-5.776 0.815,-10.778 2.445,-15.007c1.629,-4.228 3.888,-7.735 6.776,-10.52c2.888,-2.785 6.312,-4.848 10.273,-6.188c3.96,-1.341 8.272,-2.012 12.934,-2.012c1.567,0 3.145,0.104 4.734,0.31c1.588,0.206 3.001,0.474 4.239,0.804l0,-24.568l15.1,0l0,87.443l-13.058,0Zm-27.6,-30.942c0,3.465 0.237,6.425 0.711,8.88c0.475,2.455 1.176,4.466 2.104,6.034c0.929,1.567 2.073,2.712 3.435,3.434c1.361,0.722 2.908,1.083 4.641,1.083c2.558,0 4.992,-1.031 7.303,-3.094c2.31,-2.063 4.765,-4.889 7.364,-8.478l0,-27.477c-1.197,-0.454 -2.672,-0.825 -4.425,-1.114c-1.753,-0.288 -3.517,-0.433 -5.291,-0.433c-2.434,0 -4.621,0.495 -6.56,1.485c-1.939,0.991 -3.599,2.393 -4.981,4.209c-1.383,1.815 -2.445,4.032 -3.188,6.652c-0.742,2.62 -1.113,5.559 -1.113,8.819Z" style="fill:#b68be8;fill-rule:nonzero;"/><path d="M206.151,165.25c0,1.031 -0.031,2.372 -0.093,4.022c-0.062,1.65 -0.154,3.197 -0.278,4.641l-41.339,0c0,2.764 0.423,5.199 1.269,7.303c0.845,2.104 2.042,3.867 3.589,5.291c1.547,1.423 3.404,2.506 5.57,3.249c2.166,0.742 4.569,1.114 7.209,1.114c3.053,0 6.323,-0.238 9.809,-0.712c3.486,-0.475 7.106,-1.248 10.86,-2.321l0,12.006c-1.609,0.454 -3.362,0.866 -5.26,1.238c-1.897,0.371 -3.837,0.701 -5.817,0.99c-1.98,0.288 -3.981,0.505 -6.003,0.649c-2.021,0.145 -3.981,0.217 -5.879,0.217c-4.785,0 -9.076,-0.681 -12.872,-2.042c-3.795,-1.362 -7.013,-3.373 -9.653,-6.034c-2.641,-2.661 -4.662,-5.951 -6.065,-9.87c-1.403,-3.92 -2.104,-8.458 -2.104,-13.615c0,-5.116 0.701,-9.767 2.104,-13.955c1.403,-4.187 3.383,-7.777 5.941,-10.768c2.558,-2.991 5.662,-5.301 9.313,-6.931c3.652,-1.629 7.726,-2.444 12.222,-2.444c4.456,0 8.396,0.691 11.82,2.073c3.425,1.382 6.292,3.311 8.602,5.786c2.311,2.476 4.064,5.425 5.26,8.85c1.197,3.424 1.795,7.178 1.795,11.263Zm-15.347,-2.166c0.041,-2.476 -0.268,-4.631 -0.928,-6.467c-0.661,-1.836 -1.558,-3.352 -2.692,-4.549c-1.135,-1.196 -2.455,-2.083 -3.961,-2.661c-1.506,-0.577 -3.125,-0.866 -4.858,-0.866c-3.795,0 -6.91,1.268 -9.344,3.806c-2.435,2.537 -3.879,6.116 -4.332,10.737l26.115,0Z" style="fill:#b68be8;fill-rule:nonzero;"/><path d="M244.315,201.514l-17.389,0l-24.939,-62.875l16.832,0l13.058,35.646l3.898,11.51l3.837,-11.015l13.182,-36.141l16.213,0l-24.692,62.875Z" style="fill:#b68be8;fill-rule:nonzero;"/></g><g><path d="M121.897,211.51c-0.974,-0.31 -2.131,-0.57 -3.47,-0.781c-1.339,-0.21 -2.706,-0.315 -4.1,-0.315c-0.952,0 -1.838,0.127 -2.657,0.382c-0.819,0.254 -1.527,0.658 -2.125,1.212c-0.597,0.553 -1.068,1.256 -1.411,2.108c-0.343,0.852 -0.514,1.887 -0.514,3.105l0,5.445l13.248,0l0,6.309l-13.248,0l0,22.578l-8.168,0l0,-22.578l-9.795,0l0,-6.309l9.795,0l0,-5.113c0,-2.391 0.348,-4.444 1.046,-6.159c0.697,-1.716 1.682,-3.122 2.955,-4.217c1.272,-1.096 2.805,-1.898 4.598,-2.408c1.793,-0.509 3.797,-0.763 6.01,-0.763c1.461,0 2.85,0.094 4.167,0.282c1.317,0.188 2.54,0.415 3.669,0.681l0,6.541Z" style="fill:#fc8;fill-rule:nonzero;"/><path d="M143.817,230.934c0.045,-1.262 -0.016,-2.336 -0.182,-3.221c-0.166,-0.886 -0.432,-1.616 -0.797,-2.192c-0.365,-0.575 -0.814,-0.996 -1.345,-1.261c-0.531,-0.266 -1.14,-0.399 -1.826,-0.399c-1.195,0 -2.429,0.493 -3.702,1.478c-1.273,0.985 -2.673,2.606 -4.2,4.864l0,21.35l-8.301,0l0,-33.735l7.338,0l0.298,4.914c0.554,-0.863 1.179,-1.638 1.876,-2.324c0.698,-0.686 1.472,-1.278 2.325,-1.776c0.852,-0.498 1.798,-0.88 2.839,-1.146c1.04,-0.265 2.18,-0.398 3.419,-0.398c1.705,0 3.216,0.293 4.533,0.88c1.317,0.586 2.424,1.455 3.32,2.606c0.897,1.151 1.561,2.596 1.992,4.333c0.432,1.738 0.614,3.747 0.548,6.027l-8.135,0Z" style="fill:#fc8;fill-rule:nonzero;"/><path d="M172.445,208.588c0,0.73 -0.133,1.417 -0.399,2.058c-0.265,0.642 -0.636,1.201 -1.112,1.677c-0.476,0.476 -1.035,0.852 -1.677,1.129c-0.642,0.277 -1.339,0.415 -2.092,0.415c-0.752,0 -1.455,-0.138 -2.108,-0.415c-0.653,-0.277 -1.218,-0.653 -1.693,-1.129c-0.476,-0.476 -0.847,-1.035 -1.113,-1.677c-0.265,-0.641 -0.398,-1.328 -0.398,-2.058c0,-0.731 0.133,-1.417 0.398,-2.059c0.266,-0.642 0.637,-1.206 1.113,-1.693c0.475,-0.487 1.04,-0.869 1.693,-1.146c0.653,-0.276 1.356,-0.415 2.108,-0.415c0.753,0 1.45,0.139 2.092,0.415c0.642,0.277 1.201,0.659 1.677,1.146c0.476,0.487 0.847,1.051 1.112,1.693c0.266,0.642 0.399,1.328 0.399,2.059Zm-8.965,15.539l-9.529,0l0,-6.309l17.83,0l0,27.426l9.728,0l0,6.309l-28.721,0l0,-6.309l10.692,0l0,-21.117Z" style="fill:#fc8;fill-rule:nonzero;"/><path d="M204.293,251.553l-0.2,-4.981c-0.708,0.864 -1.438,1.649 -2.191,2.358c-0.753,0.708 -1.56,1.311 -2.424,1.809c-0.863,0.498 -1.787,0.886 -2.772,1.162c-0.985,0.277 -2.075,0.415 -3.271,0.415c-1.992,0 -3.763,-0.398 -5.312,-1.195c-1.55,-0.797 -2.85,-1.931 -3.902,-3.403c-1.051,-1.472 -1.853,-3.26 -2.407,-5.363c-0.553,-2.102 -0.83,-4.449 -0.83,-7.039c0,-3.099 0.437,-5.783 1.312,-8.051c0.874,-2.269 2.086,-4.151 3.635,-5.645c1.55,-1.494 3.387,-2.601 5.512,-3.32c2.125,-0.72 4.438,-1.079 6.94,-1.079c0.841,0 1.687,0.055 2.54,0.166c0.852,0.11 1.61,0.254 2.274,0.431l0,-13.181l8.102,0l0,46.916l-7.006,0Zm-14.809,-16.602c0,1.86 0.127,3.448 0.382,4.765c0.254,1.317 0.631,2.396 1.129,3.237c0.498,0.841 1.112,1.455 1.843,1.843c0.73,0.387 1.56,0.581 2.49,0.581c1.372,0 2.678,-0.553 3.918,-1.66c1.239,-1.107 2.556,-2.623 3.951,-4.549l0,-14.742c-0.642,-0.244 -1.433,-0.443 -2.374,-0.598c-0.941,-0.155 -1.887,-0.232 -2.839,-0.232c-1.306,0 -2.479,0.265 -3.519,0.797c-1.041,0.531 -1.932,1.283 -2.673,2.257c-0.742,0.974 -1.312,2.164 -1.71,3.57c-0.399,1.405 -0.598,2.982 -0.598,4.731Z" style="fill:#fc8;fill-rule:nonzero;"/><path d="M234.713,251.553l-0.199,-4.416c-0.709,0.752 -1.45,1.444 -2.225,2.075c-0.775,0.631 -1.627,1.179 -2.556,1.643c-0.93,0.465 -1.943,0.825 -3.039,1.08c-1.095,0.254 -2.296,0.381 -3.602,0.381c-1.727,0 -3.243,-0.254 -4.549,-0.763c-1.306,-0.509 -2.402,-1.218 -3.287,-2.125c-0.885,-0.908 -1.555,-2.004 -2.009,-3.287c-0.454,-1.284 -0.68,-2.701 -0.68,-4.25c0,-1.594 0.337,-3.066 1.012,-4.416c0.675,-1.351 1.705,-2.513 3.088,-3.487c1.384,-0.974 3.11,-1.737 5.18,-2.291c2.069,-0.553 4.499,-0.83 7.288,-0.83l4.416,0l0,-2.025c0,-0.864 -0.122,-1.644 -0.365,-2.341c-0.244,-0.697 -0.637,-1.289 -1.179,-1.776c-0.542,-0.487 -1.245,-0.864 -2.108,-1.129c-0.864,-0.266 -1.926,-0.399 -3.188,-0.399c-1.992,0 -3.957,0.227 -5.894,0.681c-1.936,0.454 -3.812,1.09 -5.627,1.909l0,-6.475c1.615,-0.641 3.48,-1.173 5.594,-1.593c2.114,-0.421 4.311,-0.631 6.591,-0.631c2.501,0 4.649,0.238 6.442,0.714c1.792,0.476 3.27,1.19 4.432,2.141c1.162,0.952 2.02,2.142 2.573,3.57c0.554,1.427 0.83,3.093 0.83,4.997l0,23.043l-6.939,0Zm-1.162,-14.909l-4.947,0c-1.373,0 -2.535,0.133 -3.487,0.399c-0.952,0.266 -1.726,0.631 -2.324,1.096c-0.598,0.464 -1.035,1.001 -1.311,1.61c-0.277,0.609 -0.415,1.256 -0.415,1.942c0,1.373 0.442,2.419 1.328,3.138c0.885,0.719 2.091,1.079 3.619,1.079c1.129,0 2.302,-0.409 3.519,-1.228c1.218,-0.819 2.557,-1.993 4.018,-3.52l0,-4.516Z" style="fill:#fc8;fill-rule:nonzero;"/><path d="M264.236,247.867c-1.173,2.922 -2.396,5.484 -3.669,7.687c-1.272,2.202 -2.672,4.039 -4.2,5.511c-1.527,1.472 -3.226,2.579 -5.096,3.321c-1.871,0.741 -3.968,1.112 -6.292,1.112c-0.554,0 -1.157,-0.028 -1.81,-0.083c-0.653,-0.055 -1.323,-0.138 -2.009,-0.249l0,-6.873c0.266,0.044 0.57,0.094 0.913,0.149c0.343,0.056 0.703,0.1 1.079,0.133c0.377,0.033 0.759,0.061 1.146,0.083c0.387,0.022 0.747,0.033 1.079,0.033c0.93,0 1.793,-0.177 2.59,-0.531c0.797,-0.354 1.533,-0.847 2.208,-1.477c0.675,-0.631 1.289,-1.384 1.843,-2.258c0.553,-0.875 1.04,-1.832 1.461,-2.872l-13.381,-33.735l9.031,0l7.006,19.125l2.092,6.176l2.058,-5.91l7.073,-19.391l8.699,0l-11.821,30.049Z" style="fill:#fc8;fill-rule:nonzero;"/><path d="M302.26,241.625c0,1.926 -0.426,3.569 -1.278,4.931c-0.852,1.361 -1.981,2.468 -3.387,3.32c-1.405,0.852 -2.999,1.472 -4.781,1.859c-1.782,0.388 -3.603,0.581 -5.462,0.581c-2.479,0 -4.715,-0.116 -6.707,-0.348c-1.992,-0.233 -3.874,-0.57 -5.644,-1.013l0,-7.305c2.08,0.864 4.155,1.489 6.225,1.876c2.07,0.388 4.023,0.581 5.86,0.581c2.125,0 3.714,-0.337 4.765,-1.012c1.052,-0.675 1.577,-1.555 1.577,-2.64c0,-0.509 -0.11,-0.974 -0.332,-1.394c-0.221,-0.421 -0.636,-0.825 -1.245,-1.212c-0.609,-0.388 -1.466,-0.786 -2.573,-1.196c-1.107,-0.409 -2.557,-0.869 -4.35,-1.378c-1.66,-0.464 -3.115,-0.99 -4.366,-1.577c-1.251,-0.586 -2.285,-1.278 -3.104,-2.075c-0.819,-0.797 -1.434,-1.721 -1.843,-2.772c-0.41,-1.052 -0.614,-2.286 -0.614,-3.703c0,-1.372 0.309,-2.667 0.929,-3.884c0.62,-1.218 1.544,-2.286 2.773,-3.204c1.228,-0.919 2.761,-1.644 4.598,-2.175c1.838,-0.532 3.985,-0.797 6.442,-0.797c2.125,0 4.006,0.111 5.644,0.332c1.638,0.221 3.088,0.465 4.35,0.73l0,6.608c-1.926,-0.62 -3.736,-1.057 -5.429,-1.312c-1.693,-0.254 -3.37,-0.382 -5.03,-0.382c-1.66,0 -2.994,0.299 -4.001,0.897c-1.007,0.598 -1.511,1.428 -1.511,2.49c0,0.509 0.1,0.963 0.299,1.361c0.199,0.399 0.592,0.786 1.179,1.163c0.586,0.376 1.405,0.769 2.457,1.178c1.051,0.41 2.44,0.858 4.167,1.345c1.948,0.553 3.586,1.146 4.914,1.776c1.328,0.631 2.396,1.345 3.204,2.142c0.808,0.797 1.389,1.704 1.743,2.723c0.354,1.018 0.531,2.18 0.531,3.486Z" style="fill:#fc8;fill-rule:nonzero;"/></g></g></svg>