<?xml version="1.0" encoding="utf-8"?>
<!-- Generator: Adobe Illustrator 16.0.0, SVG Export Plug-In . SVG Version: 6.00 Build 0)  -->
<!DOCTYPE svg PUBLIC "-//W3C//DTD SVG 1.1//EN" "http://www.w3.org/Graphics/SVG/1.1/DTD/svg11.dtd">
<svg version="1.1" id="Layer_1" xmlns="http://www.w3.org/2000/svg" xmlns:xlink="http://www.w3.org/1999/xlink" x="0px" y="0px"
	 width="569.332px" height="388.084px" viewBox="-5.5 -4.5 569.332 388.084" enable-background="new -5.5 -4.5 569.332 388.084"
	 xml:space="preserve">
<path fill="#FFFFFF" d="M149.741,381.584h-15.277c-26.564,0-46.314-6.229-59.252-18.685c-12.938-12.455-19.407-31.346-19.407-56.671
	V235.21c0-6.743-0.756-12.766-2.27-18.064c-1.514-5.299-4.164-9.771-7.948-13.419c-3.785-3.646-8.809-6.434-15.071-8.362
	c-6.263-1.926-14.142-2.89-23.639-2.89H-2v-28.697h8.877c10.047,0,18.236-0.826,24.568-2.477c6.331-1.652,11.285-4.164,14.865-7.535
	c3.578-3.373,6.055-7.674,7.431-12.903c1.377-5.23,2.064-11.423,2.064-18.581V73.353c0-11.561,1.377-21.986,4.129-31.276
	c2.754-9.291,7.261-17.204,13.522-23.742C79.718,11.797,87.84,6.774,97.817,3.264C107.796-0.246,120.01-2,134.463-2h15.277v28.902
	h-12.18c-31.932,0-47.897,15.484-47.897,46.451v48.104c0,33.583-14.52,52.507-43.56,56.773
	c29.315,2.891,43.973,21.746,43.973,56.567v70.605c0,31.52,15.829,47.276,47.484,47.276h12.18L149.741,381.584L149.741,381.584z"/>
<path fill="#FFFFFF" d="M410.091,381.584h15.277c26.564,0,46.314-6.229,59.252-18.685c12.938-12.455,19.406-31.346,19.406-56.671
	V235.21c0-6.743,0.757-12.766,2.271-18.064c1.515-5.299,4.164-9.771,7.95-13.419c3.784-3.646,8.809-6.434,15.069-8.362
	c6.263-1.926,14.143-2.89,23.64-2.89h8.876v-28.697h-8.876c-10.049,0-18.236-0.826-24.567-2.477
	c-6.331-1.652-11.286-4.164-14.864-7.535c-3.579-3.373-6.057-7.674-7.434-12.903c-1.375-5.23-2.063-11.423-2.063-18.581V73.353
	c0-11.561-1.377-21.986-4.129-31.276s-7.26-17.204-13.522-23.742c-6.262-6.538-14.382-11.561-24.36-15.071
	C452.037-0.246,439.822-2,425.369-2h-15.276v28.902h12.182c31.932,0,47.896,15.484,47.896,46.451v48.104
	c0,33.583,14.521,52.507,43.563,56.773c-29.316,2.891-43.975,21.746-43.975,56.567v70.605c0,31.52-15.827,47.276-47.483,47.276
	h-12.183v28.905H410.091z"/>
<g>
	<path fill="#B68BE8" d="M191.364,200.231l-0.536-13.399c-1.906,2.322-3.871,4.436-5.896,6.342c-2.023,1.904-4.197,3.527-6.52,4.867
		c-2.323,1.34-4.809,2.382-7.459,3.125c-2.65,0.744-5.581,1.117-8.797,1.117c-5.359,0-10.124-1.072-14.292-3.215
		c-4.168-2.145-7.666-5.195-10.494-9.156c-2.829-3.958-4.987-8.768-6.476-14.423c-1.488-5.658-2.233-11.969-2.233-18.936
		c0-8.336,1.176-15.556,3.529-21.66c2.351-6.103,5.611-11.164,9.78-15.184c4.169-4.02,9.11-6.997,14.827-8.931
		c5.715-1.936,11.939-2.904,18.667-2.904c2.262,0,4.539,0.15,6.833,0.447c2.292,0.297,4.332,0.684,6.118,1.161V74.024h21.794
		v126.206h-18.845V200.231z M151.529,155.573c0,5.001,0.342,9.273,1.026,12.816c0.686,3.543,1.698,6.446,3.037,8.709
		c1.341,2.262,2.992,3.914,4.958,4.956c1.964,1.042,4.197,1.563,6.698,1.563c3.692,0,7.205-1.488,10.541-4.465
		c3.334-2.978,6.877-7.056,10.628-12.236v-39.658c-1.728-0.655-3.856-1.19-6.387-1.608c-2.53-0.416-5.076-0.625-7.636-0.625
		c-3.513,0-6.669,0.714-9.468,2.143c-2.798,1.43-5.194,3.454-7.189,6.075c-1.996,2.62-3.529,5.82-4.601,9.601
		C152.065,146.625,151.529,150.867,151.529,155.573z"/>
	<path fill="#B68BE8" d="M296.732,147.891c0,1.488-0.044,3.424-0.134,5.805s-0.224,4.614-0.401,6.698h-59.664
		c0,3.989,0.61,7.504,1.831,10.541c1.22,3.037,2.947,5.581,5.18,7.637c2.233,2.054,4.913,3.617,8.04,4.689
		c3.126,1.071,6.595,1.608,10.404,1.608c4.406,0,9.126-0.343,14.157-1.027c5.031-0.686,10.256-1.801,15.674-3.35v17.33
		c-2.322,0.653-4.852,1.25-7.591,1.785c-2.738,0.536-5.538,1.014-8.396,1.43c-2.856,0.416-5.745,0.729-8.664,0.938
		c-2.917,0.209-5.745,0.313-8.483,0.313c-6.906,0-13.101-0.981-18.578-2.946c-5.479-1.966-10.122-4.867-13.934-8.709
		c-3.812-3.84-6.729-8.588-8.752-14.245c-2.025-5.658-3.037-12.207-3.037-19.65c0-7.384,1.012-14.097,3.037-20.141
		c2.025-6.043,4.882-11.225,8.575-15.542c3.691-4.317,8.172-7.651,13.441-10.003c5.271-2.351,11.149-3.527,17.64-3.527
		c6.433,0,12.118,0.997,17.061,2.992s9.081,4.779,12.416,8.351c3.335,3.574,5.864,7.83,7.592,12.773
		C295.87,136.577,296.732,141.995,296.732,147.891L296.732,147.891z M274.583,144.765c0.06-3.574-0.388-6.684-1.34-9.334
		c-0.954-2.649-2.249-4.838-3.886-6.565c-1.638-1.726-3.543-3.006-5.717-3.84c-2.173-0.833-4.511-1.25-7.013-1.25
		c-5.477,0-9.973,1.83-13.484,5.493c-3.516,3.662-5.6,8.827-6.253,15.497L274.583,144.765L274.583,144.765z"/>
	<path fill="#B68BE8" d="M351.814,200.231h-25.097l-35.995-90.748h24.294l18.847,51.448l5.626,16.612l5.538-15.898l19.025-52.162
		h23.399L351.814,200.231L351.814,200.231z"/>
</g>
<g>
	<path fill="#FFCC88" d="M175.129,214.658c-1.406-0.447-3.075-0.823-5.008-1.129c-1.933-0.303-3.906-0.453-5.918-0.453
		c-1.374,0-2.652,0.184-3.834,0.551c-1.182,0.367-2.204,0.95-3.067,1.75c-0.862,0.798-1.542,1.813-2.037,3.042
		c-0.495,1.229-0.742,2.724-0.742,4.48v7.859h19.121v9.104h-19.121v32.588h-11.789v-32.588h-14.137v-9.104h14.137v-7.38
		c0-3.451,0.502-6.414,1.51-8.891c1.006-2.477,2.427-4.506,4.265-6.086c1.836-1.581,4.049-2.739,6.636-3.476
		c2.588-0.734,5.48-1.102,8.674-1.102c2.109,0,4.113,0.136,6.014,0.406c1.901,0.271,3.666,0.6,5.295,0.983L175.129,214.658
		L175.129,214.658z"/>
	<path fill="#FFCC88" d="M206.766,242.692c0.065-1.82-0.023-3.371-0.263-4.647c-0.239-1.279-0.624-2.333-1.15-3.164
		c-0.527-0.83-1.175-1.438-1.941-1.82c-0.767-0.384-1.646-0.575-2.636-0.575c-1.725,0-3.506,0.711-5.343,2.134
		c-1.837,1.422-3.858,3.762-6.063,7.021v30.814H177.39v-48.689h10.591l0.43,7.092c0.8-1.245,1.702-2.363,2.708-3.354
		c1.007-0.989,2.125-1.844,3.355-2.563c1.23-0.719,2.595-1.271,4.098-1.653c1.501-0.384,3.146-0.574,4.935-0.574
		c2.461,0,4.642,0.423,6.542,1.27c1.901,0.847,3.499,2.102,4.792,3.763c1.294,1.66,2.253,3.745,2.875,6.254
		c0.624,2.508,0.886,5.406,0.791,8.697h-11.741V242.692z"/>
	<path fill="#FFCC88" d="M248.085,210.44c0,1.055-0.19,2.045-0.575,2.972c-0.383,0.927-0.918,1.732-1.604,2.42
		c-0.688,0.688-1.494,1.229-2.421,1.63c-0.926,0.398-1.933,0.599-3.019,0.599c-1.087,0-2.102-0.199-3.044-0.599
		c-0.941-0.4-1.758-0.942-2.442-1.63c-0.688-0.688-1.223-1.493-1.606-2.42c-0.383-0.927-0.573-1.917-0.573-2.972
		s0.19-2.045,0.573-2.972c0.385-0.927,0.919-1.741,1.606-2.442c0.686-0.703,1.501-1.256,2.442-1.654
		c0.942-0.397,1.957-0.6,3.044-0.6c1.086,0,2.093,0.201,3.019,0.6c0.927,0.398,1.733,0.951,2.421,1.654
		c0.688,0.701,1.223,1.517,1.604,2.442C247.894,208.396,248.085,209.386,248.085,210.44z M235.146,232.868h-13.753v-9.105h25.733
		v39.583h14.04v9.106h-41.453v-9.106h15.432V232.868L235.146,232.868z"/>
	<path fill="#FFCC88" d="M294.05,272.452l-0.287-7.189c-1.021,1.247-2.076,2.38-3.162,3.403c-1.087,1.021-2.252,1.893-3.499,2.61
		c-1.245,0.72-2.579,1.278-4.001,1.678c-1.422,0.398-2.994,0.599-4.722,0.599c-2.875,0-5.432-0.574-7.667-1.725
		c-2.236-1.15-4.112-2.787-5.632-4.911c-1.517-2.125-2.674-4.705-3.474-7.74c-0.798-3.034-1.198-6.422-1.198-10.16
		c0-4.473,0.631-8.346,1.895-11.619c1.262-3.274,3.011-5.99,5.247-8.146c2.235-2.156,4.888-3.755,7.955-4.792
		c3.065-1.039,6.404-1.559,10.017-1.559c1.214,0,2.435,0.079,3.666,0.239c1.229,0.159,2.323,0.367,3.282,0.623v-19.023h11.692
		v67.714L294.05,272.452L294.05,272.452z M272.678,248.489c0,2.686,0.183,4.978,0.551,6.878c0.367,1.9,0.911,3.459,1.63,4.672
		c0.719,1.214,1.604,2.101,2.66,2.66c1.053,0.559,2.251,0.839,3.594,0.839c1.979,0,3.865-0.799,5.654-2.396
		c1.788-1.598,3.688-3.786,5.703-6.565V233.3c-0.928-0.354-2.068-0.64-3.428-0.863c-1.358-0.223-2.724-0.335-4.098-0.335
		c-1.885,0-3.578,0.383-5.079,1.15c-1.502,0.767-2.788,1.852-3.856,3.258c-1.071,1.405-1.895,3.123-2.47,5.152
		C272.966,243.689,272.678,245.966,272.678,248.489z"/>
	<path fill="#FFCC88" d="M337.956,272.452l-0.287-6.374c-1.022,1.086-2.093,2.084-3.211,2.995c-1.119,0.909-2.349,1.7-3.688,2.37
		c-1.342,0.671-2.806,1.19-4.386,1.56c-1.581,0.367-3.314,0.55-5.199,0.55c-2.492,0-4.682-0.366-6.565-1.101
		c-1.885-0.735-3.467-1.759-4.744-3.067c-1.276-1.312-2.243-2.893-2.898-4.744c-0.655-1.854-0.981-3.897-0.981-6.134
		c0-2.301,0.486-4.425,1.461-6.374s2.46-3.627,4.456-5.032c1.998-1.406,4.489-2.507,7.478-3.307
		c2.985-0.798,6.492-1.198,10.519-1.198h6.374v-2.923c0-1.247-0.176-2.372-0.527-3.379c-0.352-1.006-0.919-1.86-1.7-2.563
		c-0.782-0.703-1.797-1.247-3.043-1.63c-1.247-0.384-2.779-0.576-4.602-0.576c-2.875,0-5.711,0.328-8.507,0.983
		c-2.794,0.655-5.502,1.573-8.122,2.755v-9.345c2.331-0.926,5.023-1.693,8.074-2.3c3.051-0.607,6.222-0.91,9.513-0.91
		c3.609,0,6.71,0.343,9.298,1.029c2.586,0.688,4.72,1.719,6.396,3.091c1.678,1.374,2.916,3.092,3.714,5.151
		c0.8,2.061,1.198,4.465,1.198,7.213v33.259L337.956,272.452L337.956,272.452z M336.279,250.934h-7.14
		c-1.982,0-3.659,0.192-5.033,0.576s-2.491,0.91-3.354,1.582c-0.862,0.669-1.493,1.444-1.892,2.323c-0.4,0.879-0.6,1.813-0.6,2.803
		c0,1.982,0.639,3.491,1.916,4.529s3.019,1.558,5.225,1.558c1.629,0,3.322-0.591,5.079-1.771c1.758-1.184,3.689-2.878,5.799-5.08
		V250.934L336.279,250.934z"/>
	<path fill="#FFCC88" d="M380.566,267.132c-1.692,4.218-3.458,7.915-5.295,11.095c-1.836,3.178-3.856,5.829-6.063,7.954
		c-2.204,2.124-4.655,3.723-7.354,4.793c-2.7,1.069-5.728,1.605-9.081,1.605c-0.8,0-1.67-0.041-2.612-0.12
		c-0.941-0.079-1.91-0.199-2.899-0.359v-9.92c0.385,0.063,0.822,0.136,1.317,0.215c0.495,0.081,1.016,0.146,1.559,0.192
		c0.544,0.048,1.095,0.088,1.652,0.12c0.56,0.03,1.078,0.047,1.559,0.047c1.342,0,2.588-0.255,3.737-0.768
		c1.15-0.511,2.212-1.222,3.188-2.131c0.975-0.911,1.859-1.998,2.66-3.26c0.798-1.263,1.501-2.644,2.107-4.145l-19.313-48.689
		h13.034l10.111,27.603l3.02,8.914l2.971-8.529l10.209-27.986h12.555L380.566,267.132L380.566,267.132z"/>
	<path fill="#FFCC88" d="M435.447,258.123c0,2.778-0.615,5.15-1.845,7.115c-1.23,1.966-2.859,3.563-4.889,4.792
		c-2.027,1.229-4.328,2.125-6.9,2.685s-5.2,0.838-7.883,0.838c-3.578,0-6.807-0.167-9.682-0.502
		c-2.875-0.336-5.592-0.822-8.146-1.462v-10.543c3.003,1.247,5.997,2.147,8.985,2.707c2.986,0.561,5.806,0.839,8.456,0.839
		c3.067,0,5.36-0.486,6.878-1.461c1.52-0.974,2.275-2.244,2.275-3.811c0-0.734-0.158-1.405-0.479-2.013
		c-0.319-0.606-0.918-1.189-1.797-1.749c-0.88-0.56-2.116-1.135-3.715-1.727c-1.598-0.59-3.689-1.254-6.277-1.988
		c-2.396-0.67-4.496-1.429-6.303-2.276c-1.806-0.846-3.298-1.845-4.479-2.994c-1.183-1.15-2.07-2.483-2.66-4
		c-0.592-1.52-0.887-3.301-0.887-5.346c0-1.979,0.445-3.85,1.341-5.605c0.896-1.758,2.229-3.299,4.003-4.624
		c1.772-1.326,3.984-2.373,6.636-3.14c2.653-0.769,5.752-1.149,9.298-1.149c3.067,0,5.782,0.16,8.146,0.479
		c2.364,0.319,4.456,0.672,6.278,1.055v9.536c-2.78-0.895-5.394-1.524-7.836-1.894c-2.443-0.366-4.864-0.551-7.261-0.551
		c-2.396,0-4.32,0.432-5.773,1.294c-1.454,0.863-2.182,2.062-2.182,3.595c0,0.734,0.145,1.39,0.433,1.964
		c0.287,0.576,0.854,1.135,1.701,1.68c0.846,0.543,2.026,1.108,3.546,1.699c1.518,0.593,3.521,1.238,6.015,1.941
		c2.813,0.798,5.176,1.653,7.092,2.563c1.917,0.911,3.459,1.941,4.625,3.093c1.166,1.15,2.005,2.46,2.517,3.931
		C435.191,254.561,435.447,256.238,435.447,258.123z"/>
</g>
</svg>
